<svg width="24" height="24" viewBox="0 0 24 24" fill="none" xmlns="http://www.w3.org/2000/svg">
<g clip-path="url(#clip0_22_7184)">
<mask id="mask0_22_7184" style="mask-type:luminance" maskUnits="userSpaceOnUse" x="0" y="0" width="24" height="24">
<path d="M24 0H0V24H24V0Z" fill="white"/>
</mask>
<g mask="url(#mask0_22_7184)">
<path d="M4.84864 23.4335C4.75971 23.4335 4.67078 23.406 4.59604 23.3514C4.46372 23.2552 4.39756 23.0924 4.42549 22.9313L5.75336 15.1909L0.12957 9.70978C0.0127211 9.59551 -0.0293789 9.42496 0.0208834 9.26987C0.0715752 9.11436 0.206037 9.00095 0.367994 8.97732L8.13931 7.84793L11.6151 0.80563C11.6873 0.65871 11.8368 0.565918 12 0.565918C12.1637 0.565918 12.3132 0.65871 12.385 0.80563L15.8604 7.84793L23.6321 8.97732C23.7941 9.00095 23.9281 9.11393 23.9792 9.26987C24.0295 9.42496 23.9878 9.59593 23.8705 9.70978L18.2467 15.1918L19.5742 22.9317C19.6017 23.0928 19.5355 23.2556 19.4036 23.3519C19.2713 23.449 19.0956 23.4614 18.9508 23.3845L12 19.7304L5.0484 23.3845C4.98567 23.4172 4.91694 23.4335 4.84864 23.4335Z" fill="#FCF65F"/>
</g>
</g>
<defs>
<clipPath id="clip0_22_7184">
<rect width="24" height="24" fill="white"/>
</clipPath>
</defs>
</svg>
